<svg width="24" height="24" viewBox="0 0 24 24" fill="none" xmlns="http://www.w3.org/2000/svg"> <path d="M3 10.75L3 8C3 7.44772 3.44772 7 4 7L4.5 7M3 13.25L3 16C3 16.5523 3.44772 17 4 17H4.5M7 13.25L7 16C7 16.5523 6.55228 17 6 17H5.5M7 10.75V8C7 7.44772 6.55228 7 6 7L5.5 7M17 10.75V8C17 7.44772 17.4477 7 18 7L18.5 7M17 13.25V16C17 16.5523 17.4477 17 18 17H18.5M21 13.25V16C21 16.5523 20.5523 17 20 17H19.5M21 10.75V8C21 7.44772 20.5523 7 20 7L19.5 7M10 8L10 16C10 16.5523 10.4477 17 11 17H13C13.5523 17 14 16.5523 14 16V8C14 7.44772 13.5523 7 13 7L11 7C10.4477 7 10 7.44772 10 8Z" stroke="black" stroke-width="1.5"/> </svg>