<svg width="24" height="24" viewBox="0 0 24 24" fill="none" xmlns="http://www.w3.org/2000/svg"> <path d="M6 18.5L18 18.5M18 18.5L14.5 15M18 18.5L14.5 22" stroke="currentColor" stroke-width="1.5" stroke-linecap="round" stroke-linejoin="round"/> <path d="M3 5.75L3 3.75C3 2.7835 3.7835 2 4.75 2L5.625 2M3 8.25L3 10.25C3 11.2165 3.7835 12 4.75 12H5.625M10 8.25V10.25C10 11.2165 9.2165 12 8.25 12H7.375M10 5.75L10 3.75C10 2.7835 9.2165 2 8.25 2L7.375 2M14 4V10C14 11.1046 14.8954 12 16 12H19C20.1046 12 21 11.1046 21 10V4C21 2.89543 20.1046 2 19 2L16 2C14.8954 2 14 2.89543 14 4Z" stroke="currentColor" stroke-width="1.5"/> </svg>