<svg width="24" height="24" viewBox="0 0 24 24" fill="none" xmlns="http://www.w3.org/2000/svg">
<path d="M18.5 6V18M18.5 18L22 14.5M18.5 18L15 14.5" stroke="black" stroke-width="1.5" stroke-linecap="round" stroke-linejoin="round"/>
<path d="M5.75 10H3.75C2.7835 10 2 9.2165 2 8.25V7.375M8.25 10H10.25C11.2165 10 12 9.2165 12 8.25V7.375M8.25 3H10.25C11.2165 3 12 3.7835 12 4.75V5.625M5.75 3H3.75C2.7835 3 2 3.7835 2 4.75V5.625M4 21H10C11.1046 21 12 20.1046 12 19V16C12 14.8954 11.1046 14 10 14H4C2.89543 14 2 14.8954 2 16V19C2 20.1046 2.89543 21 4 21Z" stroke="black" stroke-width="1.5"/>
</svg>
