<svg width="24" height="24" viewBox="0 0 24 24" fill="none" xmlns="http://www.w3.org/2000/svg"> <path d="M10 20L10.75 20L10 20ZM9 21L9 21.75H9L9 21ZM9 3L9 2.25L9 3ZM10 4L9.25 4L10 4ZM6 4L5.25 4L6 4ZM7 3L7 3.75L7 3ZM6 20L6.75 20L6 20ZM7 21L7 20.25H7L7 21ZM18 16L17.25 16V16L18 16ZM17 17L17 17.75H17L17 17ZM17 7L17 7.75L17 7.75L17 7ZM18 8L18.75 8V8L18 8ZM14 8L14.75 8L14.75 8L14 8ZM15 7L15 6.25L15 6.25L15 7ZM14 16L13.25 16L13.25 16L14 16ZM15 17L15 16.25H15L15 17ZM6 12.75C6.41421 12.75 6.75 12.4142 6.75 12C6.75 11.5858 6.41421 11.25 6 11.25V12.75ZM2 11.25C1.58579 11.25 1.25 11.5858 1.25 12C1.25 12.4142 1.58579 12.75 2 12.75V11.25ZM14 12.75C14.4142 12.75 14.75 12.4142 14.75 12C14.75 11.5858 14.4142 11.25 14 11.25V12.75ZM10 11.25H9.25V12.75H10V11.25ZM22 12.75C22.4142 12.75 22.75 12.4142 22.75 12C22.75 11.5858 22.4142 11.25 22 11.25V12.75ZM18 11.25C17.5858 11.25 17.25 11.5858 17.25 12C17.25 12.4142 17.5858 12.75 18 12.75V11.25ZM6.75 20L6.75 4L5.25 4L5.25 20L6.75 20ZM7 3.75L9 3.75L9 2.25L7 2.25L7 3.75ZM9.25 4L9.25 20L10.75 20L10.75 4L9.25 4ZM9 20.25H7V21.75H9V20.25ZM9.25 20C9.25 20.1381 9.13807 20.25 9 20.25L9 21.75C9.9665 21.75 10.75 20.9665 10.75 20L9.25 20ZM9 3.75C9.13807 3.75 9.25 3.86193 9.25 4L10.75 4C10.75 3.0335 9.9665 2.25 9 2.25L9 3.75ZM6.75 4C6.75 3.86193 6.86193 3.75 7 3.75L7 2.25C6.0335 2.25 5.25 3.0335 5.25 4L6.75 4ZM5.25 20C5.25 20.9665 6.0335 21.75 7 21.75L7 20.25C6.86193 20.25 6.75 20.1381 6.75 20L5.25 20ZM14.75 16V8H13.25V16H14.75ZM15 7.75H17V6.25H15V7.75ZM17.25 8V16H18.75V8H17.25ZM17 16.25H15V17.75H17V16.25ZM17.25 16C17.25 16.1381 17.1381 16.25 17 16.25L17 17.75C17.9665 17.75 18.75 16.9665 18.75 16L17.25 16ZM17 7.75C17.1381 7.75 17.25 7.86193 17.25 8L18.75 8C18.75 7.0335 17.9665 6.25 17 6.25L17 7.75ZM14.75 8C14.75 7.86193 14.8619 7.75 15 7.75L15 6.25C14.0335 6.25 13.25 7.0335 13.25 8L14.75 8ZM13.25 16C13.25 16.9665 14.0335 17.75 15 17.75L15 16.25C14.8619 16.25 14.75 16.1381 14.75 16L13.25 16ZM6 11.25H2V12.75H6V11.25ZM14 11.25H10V12.75H14V11.25ZM22 11.25H18V12.75H22V11.25Z" fill="currentColor"/> </svg>