<svg width="24" height="24" viewBox="0 0 24 24" fill="none" xmlns="http://www.w3.org/2000/svg"> <path d="M22 21.75C22.4142 21.75 22.75 21.4142 22.75 21C22.75 20.5858 22.4142 20.25 22 20.25V21.75ZM2 20.25C1.58579 20.25 1.25 20.5858 1.25 21C1.25 21.4142 1.58579 21.75 2 21.75V20.25ZM11 6V5.25C10.6772 5.25 10.3906 5.45657 10.2885 5.76283L11 6ZM6.28849 17.7628C6.1575 18.1558 6.36987 18.5805 6.76283 18.7115C7.15579 18.8425 7.58053 18.6301 7.71151 18.2372L6.28849 17.7628ZM13 6L13.7115 5.76283C13.6094 5.45657 13.3228 5.25 13 5.25V6ZM16.2885 18.2372C16.4195 18.6301 16.8442 18.8425 17.2372 18.7115C17.6301 18.5805 17.8425 18.1558 17.7115 17.7628L16.2885 18.2372ZM8.5 13.25H7.75V14.75H8.5V13.25ZM15.5 14.75H16.25V13.25H15.5V14.75ZM22 20.25H2V21.75H22V20.25ZM10.2885 5.76283L6.28849 17.7628L7.71151 18.2372L11.7115 6.23717L10.2885 5.76283ZM11 6.75H13V5.25H11V6.75ZM12.2885 6.23717L16.2885 18.2372L17.7115 17.7628L13.7115 5.76283L12.2885 6.23717ZM8.5 14.75H15.5V13.25H8.5V14.75Z" fill="currentColor"/> </svg>