<svg width="24" height="24" viewBox="0 0 24 24" fill="none" xmlns="http://www.w3.org/2000/svg"> <path d="M20 14L20 13.25L20 13.25L20 14ZM21 15L21.75 15L21.75 15L21 15ZM3 15L2.25 15L3 15ZM4 14L4 14.75L4 14.75L4 14ZM4 18L4 18.75L4 18.75L4 18ZM3 17L3.75 17L3 17ZM20 18L20 17.25L20 17.25L20 18ZM21 17L20.25 17L20.25 17L21 17ZM16 6L16 5.25L16 5.25L16 6ZM17 7L17.75 7L17.75 7L17 7ZM7 7L7.75 7L7.75 7L7 7ZM8 6L8 6.75L8 6.75L8 6ZM8 10L8 10.75L8 10.75L8 10ZM7 9L6.25 9L6.25 9L7 9ZM16 10L16 9.25L16 9.25L16 10ZM17 9L16.25 9L16.25 9L17 9ZM12.75 18C12.75 17.5858 12.4142 17.25 12 17.25C11.5858 17.25 11.25 17.5858 11.25 18H12.75ZM11.25 22C11.25 22.4142 11.5858 22.75 12 22.75C12.4142 22.75 12.75 22.4142 12.75 22H11.25ZM12.75 10C12.75 9.58579 12.4142 9.25 12 9.25C11.5858 9.25 11.25 9.58579 11.25 10H12.75ZM11.25 14V14.75H12.75V14H11.25ZM12.75 2C12.75 1.58579 12.4142 1.25 12 1.25C11.5858 1.25 11.25 1.58579 11.25 2H12.75ZM11.25 6C11.25 6.41421 11.5858 6.75 12 6.75C12.4142 6.75 12.75 6.41421 12.75 6H11.25ZM20 17.25L4 17.25L4 18.75L20 18.75L20 17.25ZM3.75 17L3.75 15L2.25 15L2.25 17L3.75 17ZM4 14.75L20 14.75L20 13.25L4 13.25L4 14.75ZM20.25 15V17H21.75V15H20.25ZM20 14.75C20.1381 14.75 20.25 14.8619 20.25 15L21.75 15C21.75 14.0335 20.9665 13.25 20 13.25L20 14.75ZM3.75 15C3.75 14.8619 3.86193 14.75 4 14.75L4 13.25C3.0335 13.25 2.25 14.0335 2.25 15L3.75 15ZM4 17.25C3.86193 17.25 3.75 17.1381 3.75 17L2.25 17C2.25 17.9665 3.0335 18.75 4 18.75L4 17.25ZM20 18.75C20.9665 18.75 21.75 17.9665 21.75 17L20.25 17C20.25 17.1381 20.1381 17.25 20 17.25L20 18.75ZM16 9.25L8 9.25L8 10.75L16 10.75L16 9.25ZM7.75 9V7H6.25V9H7.75ZM8 6.75L16 6.75L16 5.25L8 5.25L8 6.75ZM16.25 7V9H17.75V7H16.25ZM16 6.75C16.1381 6.75 16.25 6.86193 16.25 7L17.75 7C17.75 6.0335 16.9665 5.25 16 5.25L16 6.75ZM7.75 7C7.75 6.86193 7.86193 6.75 8 6.75L8 5.25C7.0335 5.25 6.25 6.0335 6.25 7L7.75 7ZM8 9.25C7.86193 9.25 7.75 9.13807 7.75 9L6.25 9C6.25 9.9665 7.0335 10.75 8 10.75L8 9.25ZM16 10.75C16.9665 10.75 17.75 9.9665 17.75 9L16.25 9C16.25 9.13807 16.1381 9.25 16 9.25L16 10.75ZM11.25 18V22H12.75V18H11.25ZM11.25 10V14H12.75V10H11.25ZM11.25 2V6H12.75V2H11.25Z" fill="currentColor"/> </svg>