<svg width="24" height="24" viewBox="0 0 24 24" fill="none" xmlns="http://www.w3.org/2000/svg"> <path d="M13.25 3L16 3C16.5523 3 17 3.44772 17 4V4.5M10.75 3L8 3C7.44772 3 7 3.44772 7 4L7 4.5M10.75 7L8 7C7.44771 7 7 6.55228 7 6L7 5.5M13.25 7H16C16.5523 7 17 6.55229 17 6V5.5M13.25 17L16 17C16.5523 17 17 17.4477 17 18V18.5M10.75 17H8C7.44772 17 7 17.4477 7 18L7 18.5M10.75 21H8C7.44771 21 7 20.5523 7 20L7 19.5M13.25 21H16C16.5523 21 17 20.5523 17 20V19.5M16 10L8 10C7.44772 10 7 10.4477 7 11L7 13C7 13.5523 7.44772 14 8 14H16C16.5523 14 17 13.5523 17 13V11C17 10.4477 16.5523 10 16 10Z" stroke="currentColor" stroke-width="1.5"/> </svg>