<svg width="24" height="24" viewBox="0 0 24 24" fill="none" xmlns="http://www.w3.org/2000/svg"> <path d="M16.75 3L18 3C18.5523 3 19 3.44772 19 4V4.5M15.25 3L14 3C13.4477 3 13 3.44772 13 4V4.5M15.25 7H14C13.4477 7 13 6.55228 13 6V5.5M16.75 7H18C18.5523 7 19 6.55228 19 6V5.5M16.75 17L18 17C18.5523 17 19 17.4477 19 18V18.5M15.25 17H14C13.4477 17 13 17.4477 13 18V18.5M15.25 21H14C13.4477 21 13 20.5523 13 20V19.5M16.75 21H18C18.5523 21 19 20.5523 19 20V19.5M7.75 10H9C9.55228 10 10 10.4477 10 11V11.5M6.25 10H5C4.44772 10 4 10.4477 4 11L4 11.5M6.25 14L5 14C4.44771 14 4 13.5523 4 13L4 12.5M7.75 14H9C9.55228 14 10 13.5523 10 13V12.5M18 10L14 10C13.4477 10 13 10.4477 13 11V13C13 13.5523 13.4477 14 14 14H18C18.5523 14 19 13.5523 19 13V11C19 10.4477 18.5523 10 18 10ZM9 17L5 17C4.44772 17 4 17.4477 4 18L4 20C4 20.5523 4.44772 21 5 21H9C9.55228 21 10 20.5523 10 20V18C10 17.4477 9.55228 17 9 17ZM9 3L5 3C4.44772 3 4 3.44772 4 4L4 6C4 6.55228 4.44772 7 5 7L9 7C9.55228 7 10 6.55228 10 6V4C10 3.44772 9.55228 3 9 3Z" stroke="currentColor" stroke-width="1.5"/> </svg>